<svg width="14" height="25" viewBox="0 0 14 25" fill="none" xmlns="http://www.w3.org/2000/svg">
<path d="M8.8832 7.2603C8.8832 5.46247 9.75537 5.46247 10.6276 5.46247H11.6742C11.8489 5.46488 12.0223 5.43119 12.1843 5.36338C12.3462 5.29557 12.4932 5.19502 12.6168 5.06766C12.7404 4.9403 12.8379 4.78871 12.9037 4.62184C12.9695 4.45498 13.0022 4.27621 12.9999 4.09611V2.40615C12.9999 2.2252 12.965 2.04604 12.8973 1.87908C12.8296 1.71213 12.7304 1.5607 12.6054 1.43358C12.4805 1.30647 12.3323 1.2062 12.1694 1.1386C12.0065 1.071 11.8323 1.03742 11.6567 1.0398L9.17974 1.00384C8.4585 0.97509 7.73979 1.10798 7.07323 1.39334C6.40667 1.67869 5.80812 2.10972 5.31889 2.65667C4.82967 3.20363 4.46142 3.85347 4.23957 4.56137C4.01772 5.26926 3.94754 6.01834 4.03389 6.75691V9.36376H2.65585C2.30425 9.36376 1.96705 9.50772 1.71843 9.76396C1.46981 10.0202 1.33014 10.3677 1.33014 10.7301V12.4201C1.33014 12.7825 1.46981 13.13 1.71843 13.3862C1.96705 13.6425 2.30425 13.7864 2.65585 13.7864H4.03389V23.4408C4.03389 23.6792 4.12578 23.9078 4.28934 24.0764C4.45291 24.245 4.67475 24.3397 4.90607 24.3397H8.06335C8.28548 24.3259 8.4941 24.2252 8.64651 24.0581C8.79892 23.891 8.8836 23.6701 8.8832 23.4408V13.7864H10.4182C10.7698 13.7864 11.107 13.6425 11.3556 13.3862C11.6043 13.13 11.7439 12.7825 11.7439 12.4201V10.7301C11.7439 10.3677 11.6043 10.0202 11.3556 9.76396C11.107 9.50772 10.7698 9.36376 10.4182 9.36376H8.8832V7.2603Z" stroke="white" stroke-linecap="round" stroke-linejoin="round"/>
</svg>
