<svg width="24" height="21" viewBox="0 0 24 21" fill="none" xmlns="http://www.w3.org/2000/svg">
<path d="M6.83954 14.8926C5.57973 15.88 4.13372 16.6044 2.58759 17.0227C2.41729 17.0844 2.27015 17.1969 2.16617 17.345C2.06219 17.493 2.00641 17.6694 2.00641 17.8502C2.00641 18.0309 2.06219 18.2073 2.16617 18.3554C2.27015 18.5034 2.41729 18.6159 2.58759 18.6776C14.7965 23.6774 22.5594 15.9488 21.3773 7.37529L23.3534 3.29097H21.0598C18.2016 -0.21239 10.6151 -0.0363416 11.8678 7.42811C11.8678 7.42811 7.8099 8.14991 2.62287 3.06211C2.50289 2.9439 2.35146 2.86249 2.18654 2.8275C2.02161 2.79252 1.8501 2.80543 1.6923 2.86471C1.5345 2.92399 1.39703 3.02715 1.29617 3.16198C1.19532 3.2968 1.1353 3.45765 1.12322 3.62546C0.574758 5.8751 0.849233 8.24621 1.89722 10.3118C2.94521 12.3775 4.69785 14.0019 6.83954 14.8926V14.8926Z" stroke="white" stroke-linecap="round" stroke-linejoin="round"/>
</svg>
