<svg width="25" height="19" viewBox="0 0 25 19" fill="none" xmlns="http://www.w3.org/2000/svg">
<path d="M20.7896 0.838867H4.89392C2.94304 0.838867 1.36154 2.42036 1.36154 4.37124V14.9684C1.36154 16.9192 2.94304 18.5007 4.89392 18.5007H20.7896C22.7405 18.5007 24.322 16.9192 24.322 14.9684V4.37124C24.322 2.42036 22.7405 0.838867 20.7896 0.838867Z" stroke="white" stroke-linecap="round" stroke-linejoin="round"/>
<path d="M9.8569 13.7672V6.34922C9.85321 6.22398 9.88375 6.10011 9.94523 5.99094C10.0067 5.88177 10.0968 5.79144 10.2058 5.72967C10.3148 5.6679 10.4386 5.63703 10.5639 5.64038C10.6891 5.64374 10.8111 5.68119 10.9166 5.74871L17.2749 9.4577C17.3811 9.52004 17.4692 9.60906 17.5304 9.71595C17.5916 9.82283 17.6238 9.94387 17.6238 10.067C17.6238 10.1902 17.5916 10.3112 17.5304 10.4181C17.4692 10.525 17.3811 10.614 17.2749 10.6764L10.9166 14.3854C10.8087 14.4476 10.6863 14.4803 10.5618 14.48C10.4372 14.4798 10.315 14.4466 10.2074 14.3838C10.0998 14.321 10.0107 14.231 9.94915 14.1227C9.8876 14.0144 9.85578 13.8917 9.8569 13.7672V13.7672Z" stroke="white" stroke-linecap="round" stroke-linejoin="round"/>
</svg>
